<?xml version="1.0" encoding="UTF-8"?>
<svg id="Layer_1" data-name="Layer 1" xmlns="http://www.w3.org/2000/svg" viewBox="0 0 1240 1240">
  <defs>
    <style>
      .cls-1 {
        fill: #fff;
      }

      .cls-2 {
        fill: #101212;
        fill-rule: evenodd;
      }
    </style>
  </defs>
  <path class="cls-2" d="M1023.64,1201.88c-97.24,33.95-217.9,31.54-330.59,32.87-65.3.07-131.02.28-196.08-.33-123.15-2.09-241.8-3.51-340.19-59.67C-5.65,1079.16,8.45,861.84,5.24,687.91c.04-82.02-.69-165.69,1.41-247.34,3.15-131.07,18.66-284.87,130.36-362.61C255.13-2.76,417.26,7.92,565.88,5.22c132.48,1.48,299.47-6.84,418.89,21.5,119.41,28.94,193.01,95.43,225.48,216.86,14.46,50.68,20.38,118.07,22.54,179.73,2.87,84.45,1.88,179.34,1.96,267.46-1.55,194.79,8.03,440.46-210.73,510.97l-.38.13Z"/>
  <g>
    <path class="cls-1" d="M726.13,990.05h-.77c.77,6.79.98,6.79.77,0Z"/>
    <path class="cls-1" d="M1039.14,229.91c-.22-1.53-1.09-4.16-2.74-7.99-1.64-3.72-2.63-6.35-2.74-7.99-75.32.33-116.49.88-123.5,1.64-78.94,9.42-122.4,20.14-130.5,32.19-7.55,31.31-14.01,57.48-19.49,78.39,59.34,2.96,90.65,48.39,90.65,48.39,34.38,14.12,37.01,83.64,37.01,83.64.77,4.93,1.42,9.74,1.86,14.56,8.1,98.32-61.42,186.34-178.57,215.57-4.82,4.27-9.42,1.42-9.42,1.42-10.84,12.37-23.76,8.21-23.76,8.21-21.24,14.34-24.3,4.05-24.3,4.05-12.92-28.57-33.72-67.22-60.76-95.36-9.52-9.96-18.83-20.03-27.59-30.65-25.84-31.64-70.07-89.56-77.19-127.44-.88-4.38-1.2-8.54-.99-12.37,16.53-46.09,45.87-45.33,45.87-45.33,9.63-23.21,35.91-18.83,35.91-18.83,6.68-27.48,30.98-33.72,42.48-35.03-.44-10.95-.22-20.14.88-27.7-13.9-10.18-35.03-18.83-63.17-25.73-28.14-7.01-50.8-8.65-67.77-5.04l-30.22,6.02c-27.81,5.69-44.12,8.43-48.94,8.21-25.4-.22-43.14.77-53.21,2.74l-13.9,2.85c-26.28,5.47-42.81,9.42-49.7,11.82-5.8,4.71-12.26,18.28-19.49,40.95-7.23,22.66-10.29,38.32-9.31,46.86.77,6.35,7.23,10.73,19.49,13.25,15.44,3.61,23.65,5.8,24.52,6.57-36.13,96.24-63.83,209.66-83.1,340.38-13.58,92.73-18.94,150.87-16.09,174.3.88,7.77,9.31,18.94,25.29,33.28,15.98,14.34,29.23,22.44,39.74,24.31,6.57,1.64,22.33.99,47.3-1.97l106.75-12.81c1.42-1.75,2.85-3.5,4.16-5.15,7.77-10.18,14.34-19.71,19.71-28.36,17.08-27.26,22.88-60,16.53-91.31-.77-3.83-1.75-7.55-2.85-11.28l-.66-2.08v-.11l-17.52-58.35c-18.28,2.96-33.72,3.72-45.43,1.53-21.57-3.72-30.77-17.08-22.44-43.79,1.2-6.13-2.19-9.09-6.24-10.51-7.66-2.63-9.85-12.59-4.27-18.5,2.19-2.19,4.05-3.5,4.05-3.5-8.65-4.6-10.95-9.85-10.95-13.9-.11-3.5,2.08-6.68,5.15-8.54,10.95-6.57,12.7-14.01,12.7-14.01-19.71-12.7-16.53-22.66-12.59-27.7,1.42-1.86,3.28-3.28,5.25-4.38,34.71-19.38,35.47-37.55,34.82-43.14-.22-1.97-.44-3.94-.55-6.02-1.86-32.84,2.85-56.27,11.17-73.02v-.11c7.55-15.55,18.17-25.18,29.34-31.2-2.41,38.1,54.19,111.12,82.11,144.52,6.79,8.1,13.69,15.88,21.13,23.32,5.69,5.69,11.17,11.93,16.31,18.39,12.04,15.22,22.55,32.08,31.31,48.06l.11.11c6.02,11.17,11.28,21.79,15.66,31.42-.55,3.39-.99,6.79-1.42,10.07-11.39,95.14,25.51,114.41,25.51,114.41,4.05,3.18,7.77,6.24,11.5,9.31-30.33,25.95-74.89,60.65-123.39,86.27-4.71,2.52-9.52,4.93-14.34,7.23-3.94,1.97-8.1,3.83-12.15,5.69,8.21.88,15.11.98,20.47.33,3.94-.44,6.57-1.53,7.99-3.28-.11-.55-.22-1.2-.33-1.75l20.69,1.2c45.98-25.84,87.48-58.79,115.61-83.1,21.79,19.71,37.01,37.77,47.08,56.16-11.61,10.07-25.73,22.01-41.71,34.27l28.58,1.75c7.77-6.24,14.89-12.37,21.35-17.96,2.3,6.35,4.16,12.81,5.36,19.49l8.76.55c0,.66,0,1.2.11,1.75,5.91.11,36.02,6.02,90.54,17.74,35.69,7.66,59.89,10.73,72.37,9.2,26.82,5.58,38.32,8.54,34.38,9.09,6.24-.77,10.4-2.52,12.48-5.15-11.61-64.38-13.36-145.39-5.15-243.05,2.52-31.97,12.59-113.64,30.22-244.91,5.36-41.93,11.39-78.28,17.95-109.15,12.15-30.76,22.55-53.87,30.98-69.08,21.35-67.55,31.09-109.15,29.23-124.81Z"/>
  </g>
</svg>