<?xml version="1.0" encoding="UTF-8"?>
<svg id="Layer_1" data-name="Layer 1" xmlns="http://www.w3.org/2000/svg" viewBox="0 0 584 211">
  <defs>
    <style>
      .cls-1 {
        fill: #fff;
      }
    </style>
  </defs>
  <g>
    <path class="cls-1" d="M82.52,109.57h-.11c.11.94.14.94.11,0Z"/>
    <path class="cls-1" d="M125.65,4.84c-.03-.21-.15-.57-.38-1.1-.23-.51-.36-.87-.38-1.1-10.38.05-16.05.12-17.02.23-10.88,1.3-16.87,2.78-17.98,4.44-1.04,4.31-1.93,7.92-2.69,10.8,8.18.41,12.49,6.67,12.49,6.67,4.74,1.95,5.1,11.53,5.1,11.53.11.68.2,1.34.26,2.01,1.12,13.55-8.46,25.68-24.6,29.7-.66.59-1.3.2-1.3.2-1.49,1.7-3.27,1.13-3.27,1.13-2.93,1.98-3.35.56-3.35.56-1.78-3.94-4.65-9.26-8.37-13.14-1.31-1.37-2.59-2.76-3.8-4.22-3.56-4.36-9.65-12.34-10.64-17.56-.12-.6-.17-1.18-.14-1.7,2.28-6.35,6.32-6.25,6.32-6.25,1.33-3.2,4.95-2.59,4.95-2.59.92-3.79,4.27-4.65,5.85-4.83-.06-1.51-.03-2.78.12-3.82-1.92-1.4-4.83-2.59-8.7-3.55-3.88-.97-7-1.19-9.34-.69l-4.16.83c-3.83.78-6.08,1.16-6.74,1.13-3.5-.03-5.94.11-7.33.38l-1.92.39c-3.62.75-5.9,1.3-6.85,1.63-.8.65-1.69,2.52-2.69,5.64-1,3.12-1.42,5.28-1.28,6.46.11.87,1,1.48,2.69,1.83,2.13.5,3.26.8,3.38.91-4.98,13.26-8.79,28.89-11.45,46.9-1.87,12.78-2.61,20.79-2.22,24.02.12,1.07,1.28,2.61,3.48,4.59,2.2,1.98,4.03,3.09,5.48,3.35.91.23,3.08.14,6.52-.27l14.71-1.76c.2-.24.39-.48.57-.71,1.07-1.4,1.98-2.72,2.72-3.91,2.35-3.76,3.15-8.27,2.28-12.58-.11-.53-.24-1.04-.39-1.55l-.09-.29v-.02l-2.41-8.04c-2.52.41-4.65.51-6.26.21-2.97-.51-4.24-2.35-3.09-6.03.17-.84-.3-1.25-.86-1.45-1.06-.36-1.36-1.73-.59-2.55.3-.3.56-.48.56-.48-1.19-.63-1.51-1.36-1.51-1.92-.02-.48.29-.92.71-1.18,1.51-.91,1.75-1.93,1.75-1.93-2.72-1.75-2.28-3.12-1.73-3.82.2-.26.45-.45.72-.6,4.78-2.67,4.89-5.17,4.8-5.94-.03-.27-.06-.54-.08-.83-.26-4.53.39-7.75,1.54-10.06v-.02c1.04-2.14,2.5-3.47,4.04-4.3-.33,5.25,7.47,15.31,11.31,19.91.94,1.12,1.89,2.19,2.91,3.21.78.78,1.54,1.64,2.25,2.53,1.66,2.1,3.11,4.42,4.31,6.62l.02.02c.83,1.54,1.55,3,2.16,4.33-.08.47-.14.94-.2,1.39-1.57,13.11,3.51,15.76,3.51,15.76.56.44,1.07.86,1.58,1.28-4.18,3.58-10.32,8.36-17,11.89-.65.35-1.31.68-1.98,1-.54.27-1.12.53-1.67.78,1.13.12,2.08.14,2.82.05.54-.06.91-.21,1.1-.45-.02-.08-.03-.17-.05-.24l2.85.17c6.34-3.56,12.05-8.1,15.93-11.45,3,2.72,5.1,5.2,6.49,7.74-1.6,1.39-3.55,3.03-5.75,4.72l3.94.24c1.07-.86,2.05-1.7,2.94-2.47.32.87.57,1.76.74,2.69l1.21.08c0,.09,0,.17.02.24.81.02,4.96.83,12.48,2.44,4.92,1.06,8.25,1.48,9.97,1.27,3.7.77,5.28,1.18,4.74,1.25.86-.11,1.43-.35,1.72-.71-1.6-8.87-1.84-20.03-.71-33.49.35-4.4,1.73-15.66,4.16-33.75.74-5.78,1.57-10.79,2.47-15.04,1.67-4.24,3.11-7.42,4.27-9.52,2.94-9.31,4.28-15.04,4.03-17.2Z"/>
  </g>
  <g>
    <path class="cls-1" d="M2.38,190.46l15.81-69.64h20.89l-15.81,69.64H2.38Z"/>
    <path class="cls-1" d="M128.33,132.16c15.42,0,23.31,6.87,18.07,29.95l-6.44,28.35h-19.4l6.44-28.35c2.1-9.25.16-13.43-7.5-13.43h-3.58c-8.65,0-12.59,4.18-14.69,13.43l-6.44,28.35h-19.4l6.44-28.35c2.1-9.25.16-13.43-7.5-13.43h-3.58c-8.65,0-12.59,4.18-14.69,13.43l-6.44,28.35h-19.4l12.9-56.81h17.41l-2.1,9.25c6.19-7.96,14.38-10.75,22.93-10.75h1.79c9.65,0,16,3.58,16.77,14.23,6.79-10.64,16.96-14.23,26.61-14.23h1.79Z"/>
    <path class="cls-1" d="M203.84,132.16c18.4,0,25.9,6.87,20.66,29.95-5.24,23.08-15.85,29.95-34.26,29.95h-1.79c-9.15,0-16.12-2.19-19.66-8.06l-5.53,24.37h-19.4l16.96-74.72h19.4l-1.49,6.57c6.21-5.87,14.17-8.06,23.32-8.06h1.79ZM189.91,175.54c10.65,0,13.58-4.18,15.68-13.43,2.1-9.25,1.06-13.43-9.59-13.43h-6.57c-10.65,0-13.58,4.18-15.68,13.43-2.1,9.25-1.06,13.43,9.59,13.43h6.57Z"/>
    <path class="cls-1" d="M278.94,132.16c20.39,0,28.41,6.77,23.17,29.85l-6.46,28.45h-19.4l1.42-6.27c-4.39,4.88-10.81,7.76-21.26,7.76h-3.28c-19.6,0-28.23-5.37-24.89-20.1,2.89-12.73,13.28-15.12,30.89-15.12h24.47c.47-6.47-1.95-8.95-10.3-8.95h-9.35c-8.65,0-11.01,3.38-11.49,5.47h-19c3.36-14.82,14.54-21.09,34.24-21.09h11.24ZM266.58,177.43c9.15,0,12.66-3.18,14.95-10.64h-22.88c-7.96,0-10.56,1.39-11.4,5.07-.95,4.18,1.03,5.57,8.98,5.57h10.35Z"/>
    <path class="cls-1" d="M331.72,191.95c-20.39,0-27.91-6.76-22.67-29.85,5.24-23.08,15.85-29.95,36.25-29.95h12.24c19.6,0,28,6.37,24.14,23.38h-19c.79-3.48-1.13-6.86-10.68-6.86h-8.36c-10.64,0-13.58,4.18-15.68,13.43-2.08,9.15-1.01,13.23,9.63,13.23h8.36c9.65,0,13.01-3.38,13.79-6.86h19c-3.91,17.21-15.08,23.48-34.78,23.48h-12.24Z"/>
    <path class="cls-1" d="M445.85,166.88c-3.84,16.91-15.54,25.07-33.15,25.07h-1.29c-16.61,0-25.02-6.37-20.7-25.37l4.2-18.51h-7.56l3.27-14.43h7.56l2.91-12.83h19.4l-2.91,12.83h33.83l-3.27,14.43h-33.83l-4.2,18.51c-1.33,5.87.19,9.25,6.16,9.25h.6c5.37,0,8.55-2.19,10.09-8.95h18.9Z"/>
  </g>
  <g>
    <path class="cls-1" d="M181.18,31.28h19.4l-16.94,74.61h-19.4l1.47-6.47c-6.21,5.87-14.16,8.06-23.32,8.06h-1.79c-18.41,0-25.9-6.87-20.66-29.95,5.24-23.08,15.85-29.95,34.26-29.95h1.79c9.15,0,16.12,2.19,19.66,8.06l5.53-24.37ZM154.99,90.97c10.65,0,13.58-4.18,15.69-13.43,2.1-9.25,1.06-13.43-9.59-13.43h-6.57c-10.65,0-13.58,4.18-15.68,13.43-2.1,9.25-1.06,13.43,9.58,13.43h6.57Z"/>
    <path class="cls-1" d="M245.52,47.59c20.39,0,28.41,6.77,23.17,29.85l-6.46,28.45h-19.4l1.42-6.27c-4.39,4.88-10.81,7.76-21.26,7.76h-3.28c-19.6,0-28.23-5.37-24.89-20.1,2.89-12.73,13.28-15.12,30.89-15.12h24.47c.47-6.47-1.95-8.95-10.3-8.95h-9.35c-8.65,0-11.02,3.38-11.49,5.47h-19c3.37-14.82,14.54-21.09,34.24-21.09h11.24ZM233.15,92.86c9.15,0,12.66-3.18,14.95-10.64h-22.88c-7.96,0-10.56,1.39-11.4,5.07-.95,4.18,1.02,5.57,8.98,5.57h10.35Z"/>
    <path class="cls-1" d="M326.09,47.59c18.4,0,25.9,6.87,20.66,29.95-5.24,23.08-15.85,29.95-34.26,29.95h-1.79c-9.15,0-16.12-2.19-19.66-8.06l-1.47,6.47h-19.4l16.94-74.61h19.4l-5.53,24.37c6.21-5.87,14.17-8.06,23.32-8.06h1.79ZM312.17,90.97c10.65,0,13.58-4.18,15.69-13.43,2.1-9.25,1.06-13.43-9.59-13.43h-6.57c-10.65,0-13.58,4.18-15.68,13.43-2.1,9.25-1.06,13.43,9.58,13.43h6.57Z"/>
    <path class="cls-1" d="M401.2,47.59c20.39,0,28.41,6.77,23.17,29.85l-6.46,28.45h-19.4l1.42-6.27c-4.39,4.88-10.81,7.76-21.26,7.76h-3.28c-19.6,0-28.23-5.37-24.89-20.1,2.89-12.73,13.28-15.12,30.89-15.12h24.47c.47-6.47-1.95-8.95-10.3-8.95h-9.35c-8.65,0-11.02,3.38-11.49,5.47h-19c3.37-14.82,14.54-21.09,34.24-21.09h11.24ZM388.84,92.86c9.15,0,12.66-3.18,14.95-10.64h-22.88c-7.96,0-10.56,1.39-11.4,5.07-.95,4.18,1.02,5.57,8.98,5.57h10.35Z"/>
    <path class="cls-1" d="M488.51,49.09h19.4l-18.61,74.71c-4.54,20-15.01,25.37-33.62,25.37h-69.69l3.75-16.52h69.69c6.76,0,9-2.39,10.47-8.85l7.92-27.65c-6.14,5.57-14.1,7.76-23.25,7.76h-1.79c-18.41,0-25.9-6.87-21.07-28.16s15.44-28.16,33.85-28.16h1.79c9.15,0,16.12,2.19,19.73,7.76l1.42-6.27ZM467.18,87.39c10.65,0,13.58-4.18,15.28-11.64,1.69-7.46.65-11.64-9.99-11.64h-6.57c-10.65,0-13.58,4.18-15.28,11.64-1.69,7.46-.65,11.64,9.99,11.64h6.57Z"/>
    <path class="cls-1" d="M556.89,47.59c20.39,0,28.41,6.77,23.17,29.85l-6.46,28.45h-19.4l1.42-6.27c-4.39,4.88-10.82,7.76-21.26,7.76h-3.28c-19.6,0-28.23-5.37-24.89-20.1,2.89-12.73,13.28-15.12,30.89-15.12h24.47c.47-6.47-1.95-8.95-10.3-8.95h-9.35c-8.65,0-11.01,3.38-11.49,5.47h-19c3.36-14.82,14.54-21.09,34.24-21.09h11.24ZM544.52,92.86c9.15,0,12.66-3.18,14.95-10.64h-22.88c-7.96,0-10.56,1.39-11.4,5.07-.95,4.18,1.02,5.57,8.98,5.57h10.35Z"/>
  </g>
</svg>